# xmcd
#
# Track frame offsets: 
#        150
#        17388
#        32105
#        53510
#        70921
#        84618
#        100903
#        118839
#        139636
#        164330
#
# Disc length: 2393 seconds
#
# Revision: 0
# Processed by: cddbd v1.5.2PL0 Copyright (c) Steve Scherf et al.
# Submitted via: ExactAudioCopy v0.95b3
#
DISCID=7b09570a
DTITLE=Curra Suarez en Yorgos Valiris - Algo sencillo
DYEAR=2008
DGENRE=Flamenco
TTITLE0=Adiós para Siempre (Bulería)
TTITLE1=Rumba del Molino
TTITLE2=Alegrías de Alberti
TTITLE3=Fandangos en la Noche
TTITLE4=Bulería de El Cabrero
TTITLE5=Pontis Moris (Tangos)
TTITLE6=Guajiras con Guasa
TTITLE7=Soleá por Bulería
TTITLE8=Tangos de Málaga
TTITLE9=Arroyo Claro (Bulería)
EXTD=
EXTT0=
EXTT1=
EXTT2=
EXTT3=
EXTT4=
EXTT5=
EXTT6=
EXTT7=
EXTT8=
EXTT9=
PLAYORDER=
